# Blender 4.5.3 LTS
# www.blender.org
mtllib arrow.mtl
o Cube.002
v -0.250762 0.127028 -0.383131
v -0.250762 -0.127028 -0.383131
v -0.250762 0.127028 0.417641
v -0.250762 -0.127028 0.417641
v -1.992182 0.127028 -0.383131
v -1.992182 -0.127028 -0.383131
v -1.992182 0.127028 0.417641
v -1.992182 -0.127028 0.417641
vn -0.0000 1.0000 -0.0000
vn -0.0000 -0.0000 1.0000
vn -1.0000 -0.0000 -0.0000
vn -0.0000 -1.0000 -0.0000
vn 1.0000 -0.0000 -0.0000
vn -0.0000 -0.0000 -1.0000
vt 0.625000 0.500000
vt 0.875000 0.500000
vt 0.875000 0.750000
vt 0.625000 0.750000
vt 0.375000 0.750000
vt 0.625000 1.000000
vt 0.375000 1.000000
vt 0.375000 0.000000
vt 0.625000 0.000000
vt 0.625000 0.250000
vt 0.375000 0.250000
vt 0.125000 0.500000
vt 0.375000 0.500000
vt 0.125000 0.750000
s 1
usemtl Material.002
f 1/1/1 5/2/1 7/3/1 3/4/1
f 4/5/2 3/4/2 7/6/2 8/7/2
f 8/8/3 7/9/3 5/10/3 6/11/3
f 6/12/4 2/13/4 4/5/4 8/14/4
f 2/13/5 1/1/5 3/4/5 4/5/5
f 6/11/6 5/10/6 1/1/6 2/13/6
o Cylinder.001
v -0.415367 -0.121474 -0.738290
v -0.415367 0.121474 -0.738290
v 0.824819 -0.121474 0.021940
v 0.824819 0.121474 0.021940
v -0.409452 -0.121474 0.716349
v -0.409452 0.121474 0.716349
vn 0.5226 -0.0000 -0.8526
vn 0.4903 -0.0000 0.8715
vn -0.0000 1.0000 -0.0000
vn -1.0000 -0.0000 0.0041
vn -0.0000 -1.0000 -0.0000
vt 1.000000 0.500000
vt 1.000000 1.000000
vt 0.666667 1.000000
vt 0.666667 0.500000
vt 0.333333 1.000000
vt 0.333333 0.500000
vt 0.457846 0.130000
vt 0.250000 0.490000
vt 0.042154 0.130000
vt -0.000000 1.000000
vt -0.000000 0.500000
vt 0.750000 0.490000
vt 0.957846 0.130000
vt 0.542154 0.130000
s 0
f 9/15/7 10/16/7 12/17/7 11/18/7
f 11/18/8 12/17/8 14/19/8 13/20/8
f 12/21/9 10/22/9 14/23/9
f 13/20/10 14/19/10 10/24/10 9/25/10
f 9/26/11 11/27/11 13/28/11
