# Blender 4.5.3 LTS
# www.blender.org
mtllib grass_4.mtl
o Plane
v -0.154049 -0.138683 0.989086
v -0.191630 -2.138330 0.989086
v -0.154049 -0.138683 -1.010914
v -0.191630 -2.138330 -1.010914
v -0.191043 -2.107075 0.989086
v -0.191043 -2.107075 -1.010914
v -0.191630 -2.138330 0.987267
v -0.191630 -2.138330 -1.008132
vn 0.9998 -0.0188 -0.0000
vt 0.000000 0.000000
vt 0.984370 0.000000
vt 0.984370 1.000000
vt 0.000000 1.000000
vt 1.000000 0.000910
vt 1.000000 0.998609
vt 1.000000 1.000000
vt 1.000000 0.000000
s 0
f 1/1/1 5/2/1 6/3/1 3/4/1
f 6/3/1 5/2/1 7/5/1 8/6/1
f 8/6/1 4/7/1 6/3/1
f 7/5/1 5/2/1 2/8/1
o Plane.002
v -0.228003 -7.954180 -0.904729
v -0.228003 -7.954180 0.847689
v -0.265584 -9.953827 0.777417
v -0.265584 -9.953827 -0.845472
v -0.265026 -9.924107 -0.846353
v -0.265026 -9.924107 0.778461
vn 0.9998 -0.0188 -0.0000
vt 0.000000 0.070698
vt 0.985137 0.105312
vt 0.985137 0.917719
vt 0.000000 0.946907
vt 1.000000 0.917279
vt 1.000000 0.105835
s 0
f 10/9/2 14/10/2 13/11/2 9/12/2
f 12/13/2 13/11/2 14/10/2 11/14/2
o Plane.006
v -0.191043 -2.107076 0.989086
v -0.228624 -4.106723 0.846528
v -0.191043 -2.107076 -1.010914
v -0.228003 -4.073693 0.237928
v -0.228624 -4.106723 0.872689
v -0.228624 -4.106723 -0.827627
v -0.227632 -4.053923 0.875762
v -0.228003 -4.073694 -0.830654
v -0.228599 -4.105364 0.846576
vn 0.9998 -0.0188 -0.0000
vt 0.973595 0.056662
vt 1.000000 0.058198
vt 0.999320 0.071255
vt 0.983482 0.375579
vt 0.983483 0.909870
vt 1.000000 0.908356
vt 0.000000 1.000000
vt 0.000000 0.000000
vt 1.000000 0.071279
s 0
f 21/15/3 19/16/3 23/17/3 18/18/3
f 22/19/3 18/18/3 20/20/3
f 17/21/3 15/22/3 21/15/3 18/18/3 22/19/3
f 18/18/3 23/17/3 16/23/3 20/20/3
f 16/23/3 23/17/3 19/16/3
o Plane.001
v -0.228003 -9.846233 -0.904729
v -0.228003 -9.846233 0.847689
v -0.265584 -11.845881 0.777417
v -0.265584 -11.845881 -0.845472
v -0.265026 -11.816160 -0.846353
v -0.265026 -11.816160 0.778461
vn 0.9998 -0.0188 -0.0000
vt 0.000000 0.070698
vt 0.985137 0.105312
vt 0.985137 0.917719
vt 0.000000 0.946907
vt 1.000000 0.917279
vt 1.000000 0.105835
s 0
f 25/24/4 29/25/4 28/26/4 24/27/4
f 27/28/4 28/26/4 29/25/4 26/29/4
o Plane.003
v -0.228003 -4.073693 -0.904729
v -0.228003 -4.073693 0.847689
v -0.265584 -6.073340 0.777417
v -0.265584 -6.073340 -0.845472
v -0.265026 -6.043620 -0.846353
v -0.265026 -6.043620 0.778461
vn 0.9998 -0.0188 -0.0000
vt 0.000000 0.070698
vt 0.985137 0.105312
vt 0.985137 0.917719
vt 0.000000 0.946907
vt 1.000000 0.917279
vt 1.000000 0.105835
s 0
f 31/30/5 35/31/5 34/32/5 30/33/5
f 33/34/5 34/32/5 35/31/5 32/35/5
o Plane.004
v -0.228003 -6.059227 -0.904729
v -0.228003 -6.059227 0.847689
v -0.265584 -8.058874 0.777417
v -0.265584 -8.058874 -0.845472
v -0.265026 -8.029153 -0.846353
v -0.265026 -8.029153 0.778461
vn 0.9998 -0.0188 -0.0000
vt 0.000000 0.070698
vt 0.985137 0.105312
vt 0.985137 0.917719
vt 0.000000 0.946907
vt 1.000000 0.917279
vt 1.000000 0.105835
s 0
f 37/36/6 41/37/6 40/38/6 36/39/6
f 39/40/6 40/38/6 41/37/6 38/41/6
