# Blender 4.5.3 LTS
# www.blender.org
mtllib grass_3.mtl
o Plane
v -0.154049 -0.138683 0.989086
v -0.191630 -2.138330 0.989086
v -0.154049 -0.138683 -1.010914
v -0.191630 -2.138330 -1.010914
v -0.191043 -2.107075 0.989086
v -0.191043 -2.107075 -1.010914
v -0.191630 -2.138330 0.987267
v -0.191630 -2.138330 -1.008132
vn 0.9998 -0.0188 -0.0000
vt 0.000000 0.000000
vt 0.984370 0.000000
vt 0.984370 1.000000
vt 0.000000 1.000000
vt 1.000000 0.000910
vt 1.000000 0.998609
vt 1.000000 1.000000
vt 1.000000 0.000000
s 0
f 1/1/1 5/2/1 6/3/1 3/4/1
f 6/3/1 5/2/1 7/5/1 8/6/1
f 8/6/1 4/7/1 6/3/1
f 7/5/1 5/2/1 2/8/1
o Plane.001
v -0.265026 -6.043619 0.989086
v -0.302607 -8.043266 0.989086
v -0.265026 -6.043619 -1.010914
v -0.302607 -8.043266 -1.010914
v -0.265026 -6.043619 -0.899049
v -0.265026 -6.043619 0.785886
v -0.302607 -8.043266 0.708718
v -0.302607 -8.043266 -0.810130
vn 0.9998 -0.0188 -0.0000
vt 0.000000 0.101600
vt 1.000000 0.140184
vt 1.000000 0.899608
vt 0.000000 0.944067
s 0
f 14/9/2 15/10/2 16/11/2 13/12/2
l 14 9
l 9 10
l 16 12
l 12 11
l 11 13
l 10 15
o Plane.002
v -0.228003 -4.073693 -0.904729
v -0.228003 -4.073693 0.847689
v -0.265584 -6.073340 0.777417
v -0.265584 -6.073340 -0.845472
v -0.265026 -6.043620 -0.846353
v -0.265026 -6.043620 0.778461
vn 0.9998 -0.0188 -0.0000
vt 0.000000 0.070698
vt 0.985137 0.105312
vt 0.985137 0.917719
vt 0.000000 0.946907
vt 1.000000 0.917279
vt 1.000000 0.105835
s 0
f 18/13/3 22/14/3 21/15/3 17/16/3
f 20/17/3 21/15/3 22/14/3 19/18/3
o Plane.003
v -0.371966 -11.733827 0.989086
v -0.371966 -11.733827 -0.646020
v -0.371966 -11.733827 -1.010914
v -0.376410 -11.970300 -0.635504
v -0.375671 -11.930975 0.989086
v -0.376306 -11.964748 -1.010914
v -0.409547 -13.733474 -0.003853
v -0.376852 -11.993811 0.954472
v -0.392474 -12.825062 0.496562
v -0.376741 -11.987900 0.554733
v -0.392594 -12.831431 -0.517450
vn 0.9998 -0.0188 -0.0000
vt 0.548899 0.753268
vt 0.118257 0.812295
vt 0.127059 0.217176
vt 0.545714 0.246262
vt 1.000000 0.496469
s 0
f 33/19/4 26/20/4 32/21/4 31/22/4
f 31/22/4 29/23/4 33/19/4
l 24 23
l 30 31
l 25 24
l 28 25
l 23 27
l 28 26
l 26 24
l 33 28
l 32 30
l 27 30
o Plane.004
v -0.301297 -7.973583 0.989086
v -0.338878 -9.973230 0.989086
v -0.301297 -7.973583 -1.010914
v -0.338878 -9.973230 -1.010914
v -0.301297 -7.973583 -0.813228
v -0.301297 -7.973583 0.711407
v -0.338878 -9.973230 0.634240
v -0.338878 -9.973230 -0.724309
vn 0.9998 -0.0188 -0.0000
vt 0.000000 0.138839
vt 1.000000 0.177423
vt 1.000000 0.856697
vt 0.000000 0.901157
s 0
f 39/24/5 40/25/5 41/26/5 38/27/5
l 39 34
l 34 35
l 41 37
l 37 36
l 36 38
l 35 40
o Plane.005
v -0.338090 -9.931329 0.989086
v -0.375671 -11.930976 0.989086
v -0.338090 -9.931329 -1.010914
v -0.375671 -11.930976 -1.010914
v -0.338090 -9.931329 -0.726172
v -0.338090 -9.931329 0.635857
v -0.375671 -11.930976 0.558689
v -0.375671 -11.930976 -0.637253
vn 0.9998 -0.0188 -0.0000
vt 0.000000 0.176615
vt 1.000000 0.215199
vt 1.000000 0.813169
vt 0.000000 0.857629
s 0
f 47/28/6 48/29/6 49/30/6 46/31/6
l 47 42
l 42 43
l 49 45
l 45 44
l 44 46
l 43 48
o Plane.006
v -0.191043 -2.107076 0.989086
v -0.228624 -4.106723 0.846528
v -0.191043 -2.107076 -1.010914
v -0.228003 -4.073693 0.237928
v -0.228624 -4.106723 0.872689
v -0.228624 -4.106723 -0.827627
v -0.227632 -4.053923 0.875762
v -0.228003 -4.073694 -0.830654
v -0.228599 -4.105364 0.846576
vn 0.9998 -0.0188 -0.0000
vt 0.973595 0.056662
vt 1.000000 0.058198
vt 0.999320 0.071255
vt 0.983482 0.375579
vt 0.983483 0.909870
vt 1.000000 0.908356
vt 0.000000 1.000000
vt 0.000000 0.000000
vt 1.000000 0.071279
s 0
f 56/32/7 54/33/7 58/34/7 53/35/7
f 57/36/7 53/35/7 55/37/7
f 52/38/7 50/39/7 56/32/7 53/35/7 57/36/7
f 53/35/7 58/34/7 51/40/7 55/37/7
f 51/40/7 58/34/7 54/33/7
