# Low-poly rock
# Generated for terrain decoration

v 0.0139 0.5500 -0.0475
v 0.8460 0.0057 0.0568
v 0.0424 0.1627 0.7509
v -0.8687 -0.0752 0.0825
v -0.0987 -0.0258 -0.9723
v 0.8360 0.0872 -0.3671
v 0.0000 -0.3705 0.0000

vn -0.4756 -0.7980 -0.3701
vn 0.4919 -0.7764 -0.3941
vn 0.5709 -0.7264 0.3827
vn -0.2478 -0.8086 0.5336
vn -0.5283 -0.8360 -0.1482
vn -0.3120 0.7828 -0.5384
vn 0.2143 0.7906 -0.5736
vn 0.3326 0.8990 0.2850
vn -0.3296 0.8788 0.3451
vn -0.4098 0.8939 0.1815
vn 0.3290 0.9288 0.1708
vn -0.1360 0.9773 -0.1626
vn -0.1021 0.9944 -0.0279

f 1//1 2//1 3//1
f 1//2 3//2 4//2
f 1//3 4//3 5//3
f 1//4 5//4 6//4
f 1//5 6//5 2//5
f 7//6 3//6 2//6
f 7//7 4//7 3//7
f 7//8 5//8 4//8
f 7//9 6//9 5//9
f 7//10 2//10 6//10
f 2//11 6//11 3//11
f 6//12 4//12 3//12
f 6//13 5//13 4//13